<?xml version="1.0" encoding="UTF-8" standalone="no"?>
<!DOCTYPE svg PUBLIC "-//W3C//DTD SVG 1.1//EN"
 "http://www.w3.org/Graphics/SVG/1.1/DTD/svg11.dtd">
<!-- Generated by graphviz version 5.0.0 (20220707.1540)
 -->
<!-- Pages: 1 -->
<svg width="794pt" height="656pt"
 viewBox="0.00 0.00 793.96 656.50" xmlns="http://www.w3.org/2000/svg" xmlns:xlink="http://www.w3.org/1999/xlink">
<g id="graph0" class="graph" transform="scale(1 1) rotate(0) translate(4 652.5)">
<polygon fill="white" stroke="transparent" points="-4,4 -4,-652.5 789.96,-652.5 789.96,4 -4,4"/>
<!-- init -->
<g id="node1" class="node">
<title>init</title>
<ellipse fill="none" stroke="black" cx="252.96" cy="-621.75" rx="22.96" ry="22.96"/>
<ellipse fill="none" stroke="black" cx="252.96" cy="-621.75" rx="27" ry="27"/>
<text text-anchor="middle" x="252.96" y="-618.05" font-family="Times,serif" font-size="14.00">init</text>
</g>
<!-- active_smart -->
<g id="node2" class="node">
<title>active_smart</title>
<path fill="none" stroke="black" d="M283.96,-558C283.96,-558 221.96,-558 221.96,-558 215.96,-558 209.96,-552 209.96,-546 209.96,-546 209.96,-534 209.96,-534 209.96,-528 215.96,-522 221.96,-522 221.96,-522 283.96,-522 283.96,-522 289.96,-522 295.96,-528 295.96,-534 295.96,-534 295.96,-546 295.96,-546 295.96,-552 289.96,-558 283.96,-558"/>
<text text-anchor="middle" x="252.96" y="-536.3" font-family="Times,serif" font-size="14.00">active_smart</text>
</g>
<!-- init&#45;&gt;active_smart -->
<g id="edge1" class="edge">
<title>init&#45;&gt;active_smart</title>
<path fill="none" stroke="black" d="M252.96,-594.64C252.96,-586.2 252.96,-576.84 252.96,-568.32"/>
<polygon fill="black" stroke="black" points="256.46,-568.12 252.96,-558.12 249.46,-568.12 256.46,-568.12"/>
</g>
<!-- idle_smart -->
<g id="node3" class="node">
<title>idle_smart</title>
<path fill="none" stroke="black" d="M370.96,-471C370.96,-471 320.96,-471 320.96,-471 314.96,-471 308.96,-465 308.96,-459 308.96,-459 308.96,-447 308.96,-447 308.96,-441 314.96,-435 320.96,-435 320.96,-435 370.96,-435 370.96,-435 376.96,-435 382.96,-441 382.96,-447 382.96,-447 382.96,-459 382.96,-459 382.96,-465 376.96,-471 370.96,-471"/>
<text text-anchor="middle" x="345.96" y="-449.3" font-family="Times,serif" font-size="14.00">idle_smart</text>
</g>
<!-- active_smart&#45;&gt;idle_smart -->
<g id="edge2" class="edge">
<title>active_smart&#45;&gt;idle_smart</title>
<path fill="none" stroke="black" d="M295.98,-523.75C306.09,-518.66 316.17,-512.14 323.96,-504 330.12,-497.57 334.72,-489.14 338.07,-481.03"/>
<polygon fill="black" stroke="black" points="341.43,-482.06 341.57,-471.46 334.85,-479.65 341.43,-482.06"/>
<text text-anchor="middle" x="358.96" y="-492.8" font-family="Times,serif" font-size="14.00">user_idle</text>
</g>
<!-- active_initial_indexing -->
<g id="node4" class="node">
<title>active_initial_indexing</title>
<path fill="none" stroke="black" d="M267.46,-297C267.46,-297 150.46,-297 150.46,-297 144.46,-297 138.46,-291 138.46,-285 138.46,-285 138.46,-273 138.46,-273 138.46,-267 144.46,-261 150.46,-261 150.46,-261 267.46,-261 267.46,-261 273.46,-261 279.46,-267 279.46,-273 279.46,-273 279.46,-285 279.46,-285 279.46,-291 273.46,-297 267.46,-297"/>
<text text-anchor="middle" x="208.96" y="-275.3" font-family="Times,serif" font-size="14.00">active_initial_indexing</text>
</g>
<!-- active_smart&#45;&gt;active_initial_indexing -->
<g id="edge3" class="edge">
<title>active_smart&#45;&gt;active_initial_indexing</title>
<path fill="none" stroke="black" d="M209.77,-532.98C150.33,-522.03 46.22,-492.5 6.96,-417 -23.84,-357.75 59.82,-319.53 128.7,-298.91"/>
<polygon fill="black" stroke="black" points="129.69,-302.26 138.31,-296.11 127.73,-295.54 129.69,-302.26"/>
<text text-anchor="middle" x="64.96" y="-405.8" font-family="Times,serif" font-size="14.00">entered_dumb_mode</text>
</g>
<!-- idle_smart&#45;&gt;active_smart -->
<g id="edge4" class="edge">
<title>idle_smart&#45;&gt;active_smart</title>
<path fill="none" stroke="black" d="M308.7,-457.36C287.74,-461.38 263.19,-470.11 249.96,-489 245.39,-495.54 244.48,-503.82 245.2,-511.74"/>
<polygon fill="black" stroke="black" points="241.78,-512.52 246.9,-521.79 248.68,-511.35 241.78,-512.52"/>
<text text-anchor="middle" x="284.96" y="-492.8" font-family="Times,serif" font-size="14.00">user_activity</text>
</g>
<!-- idle_initial_indexing -->
<g id="node5" class="node">
<title>idle_initial_indexing</title>
<path fill="none" stroke="black" d="M334.46,-384C334.46,-384 229.46,-384 229.46,-384 223.46,-384 217.46,-378 217.46,-372 217.46,-372 217.46,-360 217.46,-360 217.46,-354 223.46,-348 229.46,-348 229.46,-348 334.46,-348 334.46,-348 340.46,-348 346.46,-354 346.46,-360 346.46,-360 346.46,-372 346.46,-372 346.46,-378 340.46,-384 334.46,-384"/>
<text text-anchor="middle" x="281.96" y="-362.3" font-family="Times,serif" font-size="14.00">idle_initial_indexing</text>
</g>
<!-- idle_smart&#45;&gt;idle_initial_indexing -->
<g id="edge5" class="edge">
<title>idle_smart&#45;&gt;idle_initial_indexing</title>
<path fill="none" stroke="black" d="M308.69,-441.48C296.77,-436.16 284.88,-428.34 277.96,-417 273.87,-410.28 273.16,-402.07 273.96,-394.26"/>
<polygon fill="black" stroke="black" points="277.41,-394.85 275.73,-384.39 270.52,-393.62 277.41,-394.85"/>
<text text-anchor="middle" x="335.96" y="-405.8" font-family="Times,serif" font-size="14.00">entered_dumb_mode</text>
</g>
<!-- active_initial_indexing&#45;&gt;active_smart -->
<g id="edge7" class="edge">
<title>active_initial_indexing&#45;&gt;active_smart</title>
<path fill="none" stroke="black" d="M195.29,-297.25C176.47,-323.17 146.48,-373.74 160.96,-417 173.9,-455.65 204.45,-491.85 226.8,-514.62"/>
<polygon fill="black" stroke="black" points="224.48,-517.24 234.04,-521.81 229.41,-512.28 224.48,-517.24"/>
<text text-anchor="middle" x="215.46" y="-405.8" font-family="Times,serif" font-size="14.00">exited_dumb_mode</text>
</g>
<!-- active_initial_indexing&#45;&gt;idle_initial_indexing -->
<g id="edge6" class="edge">
<title>active_initial_indexing&#45;&gt;idle_initial_indexing</title>
<path fill="none" stroke="black" d="M205.09,-297.03C203.72,-307.35 203.79,-320.35 209.96,-330 212.84,-334.49 216.47,-338.43 220.57,-341.87"/>
<polygon fill="black" stroke="black" points="218.78,-344.9 228.95,-347.89 222.87,-339.21 218.78,-344.9"/>
<text text-anchor="middle" x="234.96" y="-318.8" font-family="Times,serif" font-size="14.00">user_idle</text>
</g>
<!-- active_indexing_suspended -->
<g id="node6" class="node">
<title>active_indexing_suspended</title>
<path fill="none" stroke="black" d="M515.96,-210C515.96,-210 373.96,-210 373.96,-210 367.96,-210 361.96,-204 361.96,-198 361.96,-198 361.96,-186 361.96,-186 361.96,-180 367.96,-174 373.96,-174 373.96,-174 515.96,-174 515.96,-174 521.96,-174 527.96,-180 527.96,-186 527.96,-186 527.96,-198 527.96,-198 527.96,-204 521.96,-210 515.96,-210"/>
<text text-anchor="middle" x="444.96" y="-188.3" font-family="Times,serif" font-size="14.00">active_indexing_suspended</text>
</g>
<!-- active_initial_indexing&#45;&gt;active_indexing_suspended -->
<g id="edge8" class="edge">
<title>active_initial_indexing&#45;&gt;active_indexing_suspended</title>
<path fill="none" stroke="black" d="M219.54,-260.93C227.37,-249.77 239.08,-235.86 252.96,-228 282.77,-211.15 318.95,-202.14 351.85,-197.42"/>
<polygon fill="black" stroke="black" points="352.48,-200.87 361.94,-196.09 351.56,-193.93 352.48,-200.87"/>
<text text-anchor="middle" x="320.46" y="-231.8" font-family="Times,serif" font-size="14.00">initial_indexing_timeout</text>
</g>
<!-- idle_initial_indexing&#45;&gt;idle_smart -->
<g id="edge10" class="edge">
<title>idle_initial_indexing&#45;&gt;idle_smart</title>
<path fill="none" stroke="black" d="M346.71,-372.93C364.89,-377.94 382.74,-386.74 393.96,-402 400.83,-411.33 395.74,-420.72 386.72,-428.79"/>
<polygon fill="black" stroke="black" points="384.54,-426.06 378.8,-434.97 388.84,-431.58 384.54,-426.06"/>
<text text-anchor="middle" x="451.46" y="-405.8" font-family="Times,serif" font-size="14.00">exited_dumb_mode</text>
</g>
<!-- idle_initial_indexing&#45;&gt;active_initial_indexing -->
<g id="edge9" class="edge">
<title>idle_initial_indexing&#45;&gt;active_initial_indexing</title>
<path fill="none" stroke="black" d="M277.1,-347.96C273.55,-337.63 267.95,-324.64 259.96,-315 256.45,-310.76 252.3,-306.82 247.91,-303.22"/>
<polygon fill="black" stroke="black" points="249.93,-300.35 239.83,-297.13 245.71,-305.94 249.93,-300.35"/>
<text text-anchor="middle" x="303.96" y="-318.8" font-family="Times,serif" font-size="14.00">user_activity</text>
</g>
<!-- idle_indexing -->
<g id="node7" class="node">
<title>idle_indexing</title>
<path fill="none" stroke="black" d="M436.46,-297C436.46,-297 369.46,-297 369.46,-297 363.46,-297 357.46,-291 357.46,-285 357.46,-285 357.46,-273 357.46,-273 357.46,-267 363.46,-261 369.46,-261 369.46,-261 436.46,-261 436.46,-261 442.46,-261 448.46,-267 448.46,-273 448.46,-273 448.46,-285 448.46,-285 448.46,-291 442.46,-297 436.46,-297"/>
<text text-anchor="middle" x="402.96" y="-275.3" font-family="Times,serif" font-size="14.00">idle_indexing</text>
</g>
<!-- idle_initial_indexing&#45;&gt;idle_indexing -->
<g id="edge11" class="edge">
<title>idle_initial_indexing&#45;&gt;idle_indexing</title>
<path fill="none" stroke="black" d="M314.27,-347.85C323.73,-342.46 333.94,-336.28 342.96,-330 354.38,-322.06 366.28,-312.45 376.45,-303.79"/>
<polygon fill="black" stroke="black" points="378.91,-306.29 384.18,-297.1 374.33,-300.99 378.91,-306.29"/>
<text text-anchor="middle" x="428.46" y="-318.8" font-family="Times,serif" font-size="14.00">initial_indexing_timeout</text>
</g>
<!-- active_indexing_suspended&#45;&gt;idle_indexing -->
<g id="edge12" class="edge">
<title>active_indexing_suspended&#45;&gt;idle_indexing</title>
<path fill="none" stroke="black" d="M462.29,-210.03C470.15,-219.88 476.4,-232.38 469.96,-243 466.66,-248.45 462.2,-253.09 457.14,-257.04"/>
<polygon fill="black" stroke="black" points="455.11,-254.18 448.78,-262.68 459.02,-259.99 455.11,-254.18"/>
<text text-anchor="middle" x="496.96" y="-231.8" font-family="Times,serif" font-size="14.00">user_idle</text>
</g>
<!-- active_indexing_resumed -->
<g id="node8" class="node">
<title>active_indexing_resumed</title>
<path fill="none" stroke="black" d="M587.96,-123C587.96,-123 455.96,-123 455.96,-123 449.96,-123 443.96,-117 443.96,-111 443.96,-111 443.96,-99 443.96,-99 443.96,-93 449.96,-87 455.96,-87 455.96,-87 587.96,-87 587.96,-87 593.96,-87 599.96,-93 599.96,-99 599.96,-99 599.96,-111 599.96,-111 599.96,-117 593.96,-123 587.96,-123"/>
<text text-anchor="middle" x="521.96" y="-101.3" font-family="Times,serif" font-size="14.00">active_indexing_resumed</text>
</g>
<!-- active_indexing_suspended&#45;&gt;active_indexing_resumed -->
<g id="edge13" class="edge">
<title>active_indexing_suspended&#45;&gt;active_indexing_resumed</title>
<path fill="none" stroke="black" d="M460.55,-173.8C471.71,-161.47 486.93,-144.68 499.42,-130.89"/>
<polygon fill="black" stroke="black" points="502.29,-132.94 506.41,-123.18 497.1,-128.24 502.29,-132.94"/>
<text text-anchor="middle" x="538.46" y="-144.8" font-family="Times,serif" font-size="14.00">indexing_resumed</text>
</g>
<!-- idle_indexing&#45;&gt;idle_smart -->
<g id="edge14" class="edge">
<title>idle_indexing&#45;&gt;idle_smart</title>
<path fill="none" stroke="black" d="M448.7,-285.84C467.4,-290.61 487.52,-299.28 499.96,-315 581.56,-418.1 526.36,-396.74 509.96,-417 495.47,-434.91 436.19,-444.06 393.05,-448.43"/>
<polygon fill="black" stroke="black" points="392.64,-444.95 383.02,-449.39 393.31,-451.92 392.64,-444.95"/>
<text text-anchor="middle" x="596.46" y="-362.3" font-family="Times,serif" font-size="14.00">exited_dumb_mode</text>
</g>
<!-- idle_indexing&#45;&gt;active_indexing_suspended -->
<g id="edge15" class="edge">
<title>idle_indexing&#45;&gt;active_indexing_suspended</title>
<path fill="none" stroke="black" d="M395.76,-260.95C392.64,-250.87 390.75,-238.13 395.96,-228 398.07,-223.92 400.89,-220.2 404.13,-216.85"/>
<polygon fill="black" stroke="black" points="406.59,-219.35 411.75,-210.1 401.94,-214.11 406.59,-219.35"/>
<text text-anchor="middle" x="430.96" y="-231.8" font-family="Times,serif" font-size="14.00">user_activity</text>
</g>
<!-- active_indexing_resumed&#45;&gt;active_smart -->
<g id="edge16" class="edge">
<title>active_indexing_resumed&#45;&gt;active_smart</title>
<path fill="none" stroke="black" d="M600.37,-119.31C638.82,-130.8 676.96,-152.02 676.96,-191 676.96,-454 676.96,-454 676.96,-454 676.96,-528.71 420.66,-538.63 306.6,-539.35"/>
<polygon fill="black" stroke="black" points="306.33,-535.85 296.35,-539.39 306.36,-542.85 306.33,-535.85"/>
<text text-anchor="middle" x="731.46" y="-318.8" font-family="Times,serif" font-size="14.00">exited_dumb_mode</text>
</g>
<!-- active_indexing_paused -->
<g id="node9" class="node">
<title>active_indexing_paused</title>
<path fill="none" stroke="black" d="M583.46,-36C583.46,-36 460.46,-36 460.46,-36 454.46,-36 448.46,-30 448.46,-24 448.46,-24 448.46,-12 448.46,-12 448.46,-6 454.46,0 460.46,0 460.46,0 583.46,0 583.46,0 589.46,0 595.46,-6 595.46,-12 595.46,-12 595.46,-24 595.46,-24 595.46,-30 589.46,-36 583.46,-36"/>
<text text-anchor="middle" x="521.96" y="-14.3" font-family="Times,serif" font-size="14.00">active_indexing_paused</text>
</g>
<!-- active_indexing_resumed&#45;&gt;active_indexing_paused -->
<g id="edge17" class="edge">
<title>active_indexing_resumed&#45;&gt;active_indexing_paused</title>
<path fill="none" stroke="black" d="M482.96,-86.94C476.15,-82.15 469.97,-76.22 465.96,-69 460.34,-58.85 465.4,-49.71 474.4,-42.1"/>
<polygon fill="black" stroke="black" points="476.68,-44.78 482.74,-36.09 472.58,-39.1 476.68,-44.78"/>
<text text-anchor="middle" x="511.96" y="-57.8" font-family="Times,serif" font-size="14.00">indexing_paused</text>
</g>
<!-- active_indexing_paused&#45;&gt;active_indexing_resumed -->
<g id="edge18" class="edge">
<title>active_indexing_paused&#45;&gt;active_indexing_resumed</title>
<path fill="none" stroke="black" d="M545.02,-36.03C550.26,-41.17 555.12,-47.26 557.96,-54 561.63,-62.68 558.51,-71.31 552.84,-78.9"/>
<polygon fill="black" stroke="black" points="549.94,-76.88 545.88,-86.67 555.16,-81.55 549.94,-76.88"/>
<text text-anchor="middle" x="609.46" y="-57.8" font-family="Times,serif" font-size="14.00">indexing_resumed</text>
</g>
</g>
</svg>
